<svg width="700" height="700" viewBox="0 0 700 700" fill="none" xmlns="http://www.w3.org/2000/svg">
<path d="M55 194.239C55 71.0706 188.333 -5.90939 295 55.6746L565 211.559C671.667 273.143 671.667 427.103 565 488.687L295 644.572C188.333 706.156 55 629.176 55 506.008L55 194.239Z" fill="#50C878"/>
<path d="M179.494 271.675C179.494 210.091 246.16 171.601 299.494 202.393L434.494 280.335C487.827 311.127 487.827 388.107 434.494 418.899L299.494 496.841C246.16 527.633 179.494 489.143 179.494 427.559V271.675Z" fill="#B9E9C9"/>
<path d="M242.24 310.893C242.24 280.101 275.574 260.856 302.24 276.252L369.74 315.223C396.407 330.619 396.407 369.109 369.74 384.505L302.24 423.476C275.574 438.872 242.24 419.627 242.24 388.835V310.893Z" fill="#EDFAF2"/>
</svg>
